<svg
    xmlns:dc="http://purl.org/dc/elements/1.1/"
    xmlns:cc="http://creativecommons.org/ns#"
    xmlns:rdf="http://www.w3.org/1999/02/22-rdf-syntax-ns#"
    xmlns:svg="http://www.w3.org/2000/svg"
    xmlns="http://www.w3.org/2000/svg"
    xmlns:sodipodi="http://sodipodi.sourceforge.net/DTD/sodipodi-0.dtd"
    xmlns:inkscape="http://www.inkscape.org/namespaces/inkscape"
    width="1052.3622"
    height="744.09448"
    id="svg2"
    version="1.1"
    inkscape:version="0.48.4 r9939"
    sodipodi:docname="New document 2">
    <defs
        id="defs4" />
    <sodipodi:namedview
        id="base"
        pagecolor="#ffffff"
        bordercolor="#666666"
        borderopacity="1.0"
        inkscape:pageopacity="0.0"
        inkscape:pageshadow="2"
        inkscape:zoom="0.35"
        inkscape:cx="375"
        inkscape:cy="495.71429"
        inkscape:document-units="px"
        inkscape:current-layer="layer1"
        showgrid="false"
        inkscape:window-width="1366"
        inkscape:window-height="664"
        inkscape:window-x="-8"
        inkscape:window-y="-8"
        inkscape:window-maximized="1" />
    <g
        inkscape:label="Layer 1"
        inkscape:groupmode="layer"
        id="layer1"
        transform="translate(0,-308.2677)">
        <path
            inkscape:connector-curvature="0"
            id="path3004"
            d="m 579.33572,941.01652 c -5.79466,-5.4153 -10.53573,-11.0456 -10.53573,-12.5118 0,-1.4661 -1.56886,-3.7645 -3.48636,-5.1076 -3.23093,-2.263 -3.40754,-3.5358 -2.41069,-17.3717 0.66494,-9.2293 1.99608,-15.9468 3.48634,-17.5935 1.3259,-1.4651 2.41071,-4.5554 2.41071,-6.8673 0,-3.0826 1.91055,-5.4599 7.16423,-8.9146 6.7218,-4.4201 7.9367,-4.6466 19.6692,-3.6684 6.8776,0.5734 12.8798,1.4176 13.3381,1.8759 0.4583,0.4583 -0.048,2.7686 -1.1263,5.134 -1.0777,2.3654 -1.9595,7.5808 -1.9595,11.5898 0,6.461 -0.676,7.7447 -5.9505,11.2993 -7.0136,4.7266 -15.1131,16.8534 -16.5904,24.8398 -1.0826,5.8522 1.565,13.5317 7.7836,22.5775 5.501,8.0018 -0.4134,5.3531 -11.7927,-5.2814 z m -22.75716,-73.6466 c -2.79443,-2.8378 -0.94624,-7.393 4.90364,-12.086 7.35732,-5.9022 6.45028,-9.7121 -1.98628,-8.343 -11.40412,1.8506 -17.97787,-10.1206 -7.55308,-13.7547 3.40333,-1.1864 5.05715,-2.8942 5.05715,-5.2221 0,-3.5586 -4.0452,-4.7745 -5.9,-1.7734 -2.69308,4.3575 -12.64286,-0.4482 -12.64286,-6.1064 0,-1.3718 2.60313,-3.5818 5.78473,-4.9112 7.16643,-2.9943 8.40329,-4.8439 5.08241,-7.5999 -1.95529,-1.6228 -3.0548,-1.6691 -4.53287,-0.191 -2.53831,2.5383 -8.48293,2.4999 -11.05427,-0.072 -3.17187,-3.1719 -2.39434,-7.1548 2.24817,-11.5162 6.28535,-5.9048 4.81345,-9.2181 -4.09499,-9.2181 -9.70919,0 -12.68631,-3.9752 -7.28392,-9.7258 5.68807,-6.0546 4.89091,-8.566 -2.29132,-7.2186 -5.83539,1.0947 -10.82937,-0.9088 -10.82937,-4.3446 0,-0.8198 1.87055,-3.1169 4.15679,-5.1048 4.99849,-4.346 4.13521,-6.4776 -2.62346,-6.4776 -6.21105,0 -8.07122,-3.9983 -3.96904,-8.5312 3.87553,-4.2824 1.18417,-7.8934 -3.86792,-5.1896 -2.35155,1.2585 -3.85042,1.2067 -5.23812,-0.181 -2.69871,-2.6987 -2.45388,-4.3039 1.40449,-9.209 3.90325,-4.9622 3.11683,-7.2321 -2.5056,-7.2321 -5.42685,0 -6.8502,-2.8988 -3.33211,-6.7863 3.51854,-3.8879 2.16968,-8.3851 -2.51499,-8.3851 -4.10497,0 -4.66801,-5.2979 -0.89575,-8.4286 3.69338,-3.0652 3.08996,-6.4286 -1.26429,-7.047 -5.41767,-0.7694 -5.66702,-6.5678 -0.49154,-11.43 4.27732,-4.0183 5.6991,-8.4944 2.69817,-8.4944 -0.87242,0 -2.05505,0.7586 -2.62806,1.6857 -0.57301,0.9272 -2.13492,1.6857 -3.47092,1.6857 -4.53797,0 -2.45197,-5.5259 5.15664,-13.6601 8.67632,-9.2757 10.00892,-13.5181 2.50315,-7.9688 -4.60286,3.403 -5.33055,3.5097 -7.71004,1.1302 -2.37949,-2.3795 -1.80503,-3.6157 6.08658,-13.0985 4.79272,-5.759 8.31475,-10.87024 7.82673,-11.35825 -0.48801,-0.48802 -3.20808,0.48361 -6.0446,2.1592 -3.77655,2.23085 -5.65789,2.54595 -7.02703,1.17675 -3.30083,-3.30081 0.1871,-9.08073 7.46869,-12.37656 8.41311,-3.80797 17.46063,-11.13029 15.80205,-12.78887 -0.65522,-0.6552 -3.08194,-0.32984 -5.39271,0.72302 -5.04658,2.29937 -9.65704,0.89697 -8.95946,-2.72527 0.57947,-3.0089 12.95898,-10.69102 22.07816,-13.70062 6.93769,-2.28964 9.12406,-4.64516 6.62824,-7.14099 -1.11339,-1.11339 -5.40062,-0.56105 -12.74304,1.64172 -6.08583,1.8258 -11.45827,2.92649 -11.93876,2.446 -3.20682,-3.20681 8.66519,-12.19538 16.20261,-12.26736 5.24596,-0.0501 18.20514,-6.07416 18.20514,-8.46264 0,-1.27046 -3.57022,-1.80391 -10.53571,-1.57423 -13.63924,0.44973 -13.47053,0.49703 -11.48147,-3.21956 1.61867,-3.02453 13.46127,-6.64779 30.86718,-9.44385 9.0962,-1.4612 7.77865,-3.97277 -2.39607,-4.56746 -4.79463,-0.28024 -8.98668,-1.32784 -9.31568,-2.32799 -0.64585,-1.96339 16.96369,-7.45296 23.90773,-7.45296 2.73111,0 4.23974,-0.94291 4.23974,-2.64987 0,-2.20235 -1.49464,-2.47766 -8.85,-1.63016 -9.01173,1.03835 -15.3765,-0.96347 -12.20734,-3.83939 0.91939,-0.83433 6.43489,-2.49142 12.25668,-3.68244 5.82178,-1.19102 10.98691,-2.81569 11.47806,-3.61039 1.91932,-3.10554 -1.23384,-4.31935 -8.00436,-3.08127 -15.51571,2.83724 -15.70555,-4.32885 -0.24693,-9.32077 11.23799,-3.62899 13.50891,-7.17085 3.88817,-6.06419 -11.69781,1.34558 -14.32857,1.06622 -14.32857,-1.52153 0,-1.62669 3.90811,-3.78598 10.95714,-6.05397 8.55846,-2.75364 11.07506,-4.32202 11.49582,-7.16429 0.4297,-2.90278 -0.31535,-3.63888 -3.68312,-3.63888 -2.32199,0 -6.29112,0.78676 -8.82032,1.74836 -6.75395,2.56784 -9.10678,-0.57944 -4.27672,-5.7208 3.74876,-3.99037 3.75085,-4.02311 0.31482,-4.92165 -5.2663,-1.37717 -4.15119,-5.33917 2.87275,-10.20676 9.33584,-6.46974 16.24325,-8.53773 20.64636,-6.18127 2.10736,1.12783 6.28016,1.4859 9.99726,0.85789 l 6.3802,-1.07792 0.9468,7.05866 c 1.401,10.44551 0.3728,11.87587 -7.6181,10.59807 -5.3882,-0.86161 -6.6299,-0.59888 -6.0145,1.27269 0.4266,1.29714 3.2206,2.59899 6.209,2.893 4.0468,0.39813 5.8596,1.65538 7.1033,4.92641 2.3832,6.26827 0.7644,8.85871 -5.5792,8.92823 l -5.5315,0.0606 4.6357,3.79556 c 8.3423,6.83038 4.9984,17.43917 -4.8959,15.53258 -4.7644,-0.91809 -4.7607,-0.90748 0.5526,1.56531 6.71,3.12281 7.6743,4.69462 6.2825,10.23992 -1.0031,3.9967 -1.679,4.33222 -6.7944,3.37257 -6.65077,-1.2477 -7.53688,1.07153 -1.4662,3.83752 3.3141,1.51 4.2143,3.1669 4.2143,7.75681 0,7.07656 -1.6201,8.30374 -7.8404,5.9388 l -4.7519,-1.80667 4.13259,4.39894 c 3.30481,3.51779 3.75871,4.97467 2.26601,7.27317 -1.0905,1.67921 -3.69528,2.74229 -6.265,2.55688 -5.56521,-0.40154 -5.55434,0.95476 0.0433,5.41824 3.90863,3.11663 4.19665,3.99995 2.39929,7.35835 -1.2231,2.28539 -3.00512,3.42595 -4.44184,2.84294 -1.31956,-0.53547 -3.5371,-1.43403 -4.92781,-1.9968 -3.78632,-1.53217 -3.04909,2.31173 0.84285,4.39464 4.00585,2.14387 4.39781,7.16394 0.79295,10.15571 -2.0045,1.66358 -3.59936,1.70467 -7.16429,0.1846 l -4.5858,-1.95536 4.95388,4.13168 c 4.46721,3.7258 4.75845,4.56058 2.96458,8.49769 -1.09411,2.40131 -3.06524,4.77889 -4.3803,5.28353 -3.38665,1.29958 -12.26552,-3.67185 -15.57288,-8.71949 -2.04676,-3.12375 -3.29205,-3.76339 -4.65158,-2.38923 -1.3561,1.37069 -0.26614,3.19943 4.04344,6.78407 3.245,2.69914 6.67943,4.92794 7.63206,4.95288 0.95265,0.025 3.39081,1.20718 5.41817,2.62719 3.23148,2.26343 3.44616,3.14699 1.74062,7.16428 -1.07001,2.52035 -2.49184,5.23497 -3.15964,6.0325 -2.11779,2.52923 -18.04886,-3.91956 -21.57011,-8.73144 -2.99251,-4.08937 -3.41999,-4.22596 -4.50008,-1.4379 -1.63118,4.21061 1.7731,7.21103 13.72603,12.09768 11.14764,4.55741 10.9715,4.02899 7.22947,21.68961 l -2.09694,9.8965 -11.24343,-0.8044 c -6.18388,-0.4425 -13.61939,-1.9898 -16.52334,-3.4385 -5.99293,-2.9896 -9.00964,-0.8274 -4.7661,3.4161 1.91165,1.9117 6.42007,2.6903 16.53171,2.8549 13.89752,0.2264 13.90381,0.2285 15.23218,5.1955 0.91919,3.437 0.62569,5.6724 -0.95184,7.2499 -3.09119,3.0912 -25.04936,3.426 -28.65104,0.4369 -1.46406,-1.2151 -3.89487,-1.7361 -5.40182,-1.1578 -2.30737,0.8854 -2.38734,1.4762 -0.50652,3.7424 1.84068,2.2179 5.20855,2.5849 19.15415,2.0872 l 16.92076,-0.6038 0.54422,5.6929 c 0.29933,3.1311 -0.19187,6.429 -1.09154,7.3287 -1.05719,1.0572 -0.65345,3.3548 1.1415,6.4962 2.12258,3.7147 2.33913,5.5594 0.91863,7.8256 -2.43067,3.8777 -14.19415,5.942 -26.55207,4.6594 -7.73135,-0.8024 -9.70237,-0.5455 -9.1036,1.1865 0.88019,2.5461 24.34019,2.1272 31.41025,-0.5608 5.1964,-1.9757 6.49834,-0.6417 7.8928,8.0868 l 1.11849,7.001 -9.28069,2.0769 c -8.07691,1.8076 -12.12015,1.7187 -18.77181,-0.4124 -2.44292,-0.7827 -3.06004,3.213 -0.63313,4.0995 2.61044,0.9535 22.91167,-1.1993 26.92873,-2.8557 2.08163,-0.8583 3.55729,0.2254 5.54745,4.074 1.49128,2.8838 2.30346,5.9033 1.80486,6.7101 -1.51575,2.4525 -17.63573,5.6261 -23.06349,4.5405 -3.64824,-0.7296 -4.89454,-0.4248 -4.38731,1.073 0.80368,2.3731 13.26404,2.6514 24.21283,0.5408 6.70939,-1.2934 7.04783,-1.1445 9.7605,4.2931 2.63427,5.2806 2.62933,5.7652 -0.0791,7.7456 -3.99904,2.9241 -13.16799,4.434 -20.09754,3.3095 -4.40922,-0.7155 -5.80574,-0.3467 -5.80574,1.5334 0,1.3615 1.08429,2.8915 2.40951,3.4001 2.39483,0.919 18.59357,-1.3422 25.80573,-3.6023 2.82504,-0.8852 4.05352,-0.3932 4.89194,1.9592 0.61576,1.7277 2.24681,4.4545 3.62456,6.0596 3.44874,4.0179 0.64482,7.0472 -9.03017,9.756 -6.14742,1.7212 -8.40818,1.7234 -11.60722,0.012 -4.91118,-2.6283 -8.77932,-0.8871 -5.8555,2.6358 2.54104,3.0618 10.70651,2.9199 19.26116,-0.3348 11.89817,-4.5268 12.53887,-4.586 13.73957,-1.2708 0.6257,1.7277 2.5313,5.1548 4.2347,7.6158 1.7035,2.461 3.0971,4.969 3.0971,5.5734 0,0.6043 -3.499,2.6466 -7.7756,4.5384 -5.87757,2.5999 -9.5811,3.1688 -15.17145,2.3305 -7.55596,-1.1331 -9.41913,0.3768 -4.99531,4.0483 1.85754,1.5416 6.08231,1.365 18.67936,-0.7809 8.9535,-1.5251 16.4225,-2.5184 16.5978,-2.2072 1.682,2.9855 4.1889,12.2921 3.5776,13.2812 -1.2626,2.043 -22.2463,5.1658 -26.88611,4.0013 -4.76342,-1.1955 -5.38585,0.4779 -1.93378,5.1989 2.17583,2.9756 3.18816,3.0414 16.18239,1.0522 7.6238,-1.167 14.1043,-1.8791 14.4011,-1.5822 0.2969,0.2968 1.6525,3.7694 3.0125,7.7169 1.7748,5.1515 1.944,7.5041 0.5992,8.3353 -3.746,2.3151 -20.2575,3.6606 -23.5166,1.9164 -4.6731,-2.501 -7.10333,0.6572 -3.2142,4.1768 2.7776,2.5137 4.644,2.6103 16.913,0.8753 7.585,-1.0727 14.2303,-1.5109 14.7674,-0.9738 1.5551,1.5552 4.2011,14.7996 3.2606,16.3214 -0.4693,0.7594 -5.0773,1.9084 -10.24,2.5535 -7.4293,0.9282 -10.2999,0.5745 -13.7656,-1.6964 -4.1922,-2.7468 -4.4936,-2.7207 -7.0712,0.6113 -1.9578,2.5307 -5.4525,3.781 -12.80676,4.582 -5.56286,0.6059 -10.68321,0.5239 -11.37857,-0.1822 z m -26.69047,-172.0331 c 0.3863,-0.3475 -2.02487,-0.6318 -5.35816,-0.6318 -3.33332,0 -7.27209,-1.2115 -8.75286,-2.6923 -1.48076,-1.4808 -3.81065,-2.2631 -5.17755,-1.7386 -2.61402,1.0031 -3.32081,4.7192 -1.28482,6.7552 1.1339,1.1339 19.0718,-0.3418 20.57339,-1.6925 z m -3.61001,-57.2023 c -2.52633,-1.371 -5.42387,-4.04464 -6.43899,-5.94139 -1.47552,-2.75707 -2.32915,-3.04737 -4.25667,-1.44768 -1.32605,1.10052 -2.41101,3.38161 -2.41101,5.06907 0,2.3845 1.59627,3.2118 7.16429,3.7133 3.94036,0.355 7.92286,0.7475 8.85,0.8724 0.92714,0.1249 -0.38129,-0.8948 -2.90762,-2.2657 z M 562.76211,479.5961 c 1.46656,-0.56277 2.66645,-1.70062 2.66645,-2.52857 0,-2.45872 -6.1594,-1.71099 -8.42857,1.02321 -1.71092,2.06153 -1.61883,2.52857 0.49858,2.52857 1.42841,0 3.797,-0.46044 5.26354,-1.02321 z m -8.11226,-20.60236 c -2.01367,-3.25818 1.05463,-6.90076 7.97734,-9.47042 3.85861,-1.43228 8.5328,-2.4773 10.38708,-2.32226 1.85425,0.15504 4.93935,-0.23448 6.85575,-0.86559 2.523,-0.83092 4.6158,0.059 7.5857,3.22566 l 4.1014,4.37315 -4.1882,3.39716 c -3.3458,2.71388 -5.5497,3.16736 -10.9572,2.25462 -9.24374,-1.56026 -11.13516,-1.57822 -16.27784,-0.15456 -2.53329,0.7013 -4.89664,0.51265 -5.48403,-0.43776 z"
            style="fill:#212121" />
    </g>
</svg>